<?xml version="1.0" encoding="utf-8"?>
<!-- Generator: Adobe Illustrator 22.1.0, SVG Export Plug-In . SVG Version: 6.00 Build 0)  -->
<svg version="1.1" id="Слой_1" xmlns="http://www.w3.org/2000/svg" xmlns:xlink="http://www.w3.org/1999/xlink" x="0px" y="0px"
	 viewBox="0 0 176.3 82.1" style="enable-background:new 0 0 176.3 82.1;" xml:space="preserve">
<style type="text/css">
	.st0{fill:#FFFFFF;}
	.st1{fill:#D0BD8C;}
</style>
<g>
	<g>
		<path class="st0" d="M28,14.5c-0.3-3.1-0.5-6.3-0.5-9.6c-5,8.2-8.2,16.8-9.7,25.8C20.5,24.8,23.9,19.4,28,14.5z"/>
		<path class="st1" d="M38.3,32.6C39.4,21.8,42.6,11,48.6,0c-4.7,2.7-8.9,5.9-12.8,9.4c-4.7,4.3-8.7,9.2-12.1,14.8
			c-6.2,10.2-10,22.5-11.5,36.9c3.6-0.4,7.2,0.2,10.7,1.9c1.7,0.8,3.4,1.8,5.1,3c-2-5.8-2.8-11.3-2.8-16.5
			c2.4,7.2,6.2,13.2,10.9,18.4c2.3,2.5,4.8,4.8,7.5,7c-1.4-4.3-2.6-8.7-3.5-13.1C38,52.1,37.3,42.4,38.3,32.6z"/>
	</g>
	<path class="st0" d="M57.1,81.6C27.8,84.8,22.8,72.3,0,64.2C22.3,63,23.8,76,57.1,81.6z"/>
</g>
<g>
	<path class="st0" d="M58.8,41.6l0.1-0.6l0.7-0.2c0.8-0.2,1.3-0.7,1.4-1.5l1.1-5.8l-3.3-9.7c-0.2-0.7-0.7-1.2-1.4-1.4l-0.4-0.1
		l0.1-0.6h7.4l-0.1,0.6L64,22.3c-0.7,0.2-1,0.6-0.8,1.3l2.5,8.3l5.2-8.4c0.2-0.3,0.2-0.5,0.1-0.8c-0.1-0.2-0.3-0.4-0.6-0.5l-0.5-0.2
		l0.1-0.6h4.3l-0.1,0.6l-0.6,0.2c-0.7,0.2-1.3,0.6-1.7,1.3l-5.8,9.3c-0.2,0.9-0.3,2-0.6,3.1c-0.2,1.1-0.4,2.2-0.6,3.2
		c-0.2,0.8,0.2,1.3,0.9,1.5l0.7,0.2l-0.2,0.6H58.8z"/>
	<path class="st0" d="M75,42c-0.8,0-1.6-0.3-2.2-0.9c-0.7-0.6-1-1.6-1-3.1c0-1.1,0.2-2.2,0.6-3.2c0.4-1.1,1-2.1,1.7-3.1
		c0.7-1,1.5-1.9,2.4-2.6s1.8-1.4,2.7-1.8s1.8-0.7,2.6-0.7c0.4,0,0.8,0.1,1.1,0.2s0.7,0.4,1,0.6l2.3-1l0.3,0.2L83.9,38
		c-0.2,0.6-0.2,1.1-0.2,1.4c0,0.4,0.2,0.6,0.6,0.6c0.3,0,0.6-0.1,0.9-0.3c0.3-0.2,0.7-0.6,1.2-1l0.4,0.4c-0.3,0.5-0.7,0.9-1.1,1.4
		c-0.4,0.4-0.9,0.8-1.5,1.1c-0.6,0.3-1.1,0.4-1.7,0.4c-0.6,0-1.2-0.2-1.6-0.6s-0.6-1-0.6-1.8c0-0.3,0-0.6,0.1-0.9
		c-0.8,0.9-1.7,1.7-2.6,2.4C76.6,41.7,75.8,42,75,42z M75.3,36.6c0,1,0.2,1.8,0.5,2.2c0.3,0.5,0.8,0.7,1.4,0.7c0.5,0,1-0.2,1.5-0.5
		c0.5-0.3,1.1-0.8,1.7-1.4c0-0.1,0.1-0.3,0.1-0.5l1.9-8.6c-0.3-0.3-0.6-0.5-0.9-0.6c-0.3-0.1-0.7-0.2-1-0.2c-0.8,0-1.7,0.5-2.7,1.5
		c-0.7,0.8-1.3,1.8-1.7,3.1C75.5,33.9,75.3,35.2,75.3,36.6z"/>
	<path class="st0" d="M93.7,42c-1.5,0-2.7-0.5-3.6-1.5c-0.9-1-1.4-2.4-1.4-4.2c0-1.3,0.2-2.5,0.7-3.7c0.5-1.2,1.1-2.2,1.9-3.1
		s1.7-1.6,2.7-2.1c1-0.5,2.1-0.8,3.3-0.8c0.7,0,1.4,0.1,2,0.3c0.6,0.2,1.1,0.5,1.4,0.9c0.4,0.4,0.5,0.8,0.5,1.4
		c0,0.5-0.2,0.9-0.5,1.2s-0.7,0.5-1.2,0.5c-0.5,0-1-0.2-1.3-0.5s-0.6-0.7-0.8-1.1L97,28.8c-0.3-0.6-0.5-0.9-0.8-1
		c-0.2-0.1-0.6,0.1-1.1,0.5c-0.5,0.5-1,1.1-1.5,1.8s-0.9,1.6-1.1,2.5s-0.4,1.9-0.4,2.9c0,1.4,0.3,2.5,1,3.2c0.6,0.7,1.5,1,2.6,1
		c0.7,0,1.4-0.2,2.1-0.7c0.7-0.5,1.3-1.1,1.9-1.8l0.5,0.4c-0.4,0.8-0.9,1.5-1.6,2.2c-0.7,0.7-1.4,1.2-2.2,1.6
		C95.5,41.8,94.6,42,93.7,42z"/>
	<path class="st0" d="M101.2,41.8l-0.2-0.2l2.8-13.4c0.1-0.7,0.3-1.4,0.4-2c0.1-0.6,0.2-1.3,0.4-2c0.2-0.9-0.2-1.4-1.1-1.7l-0.4-0.2
		l0.1-0.5l5.6-1.6l0.3,0.2l-2,9.6c1-1,2.1-1.9,3.2-2.5c1.1-0.7,2.2-1,3.1-1c0.6,0,1.2,0.2,1.6,0.6s0.6,1,0.6,1.8
		c0,0.4,0,0.9-0.1,1.4c-0.1,0.5-0.2,0.9-0.3,1.4l-1.5,6c-0.1,0.4-0.2,0.7-0.2,1c-0.1,0.3-0.1,0.5-0.1,0.7c0,0.4,0.2,0.6,0.5,0.6
		c0.5,0,1.2-0.4,2.1-1.2l0.4,0.4c-0.5,0.7-1.1,1.4-1.9,2c-0.8,0.6-1.7,0.9-2.7,0.9c-0.6,0-1.1-0.2-1.5-0.5s-0.5-0.7-0.5-1.2
		c0-0.4,0-0.9,0.2-1.3c0.1-0.4,0.2-0.9,0.3-1.4l1.3-5.3c0.1-0.5,0.3-1,0.4-1.5c0.1-0.4,0.2-0.8,0.2-1.2c0-0.7-0.3-1.1-1-1.1
		c-1,0-2.4,0.8-4,2.4l-0.9,4.1c-0.3,1.2-0.5,2.3-0.7,3.3s-0.4,2.1-0.5,3.1L101.2,41.8z"/>
	<path class="st0" d="M120.8,42c-0.6,0-1.1-0.2-1.5-0.5s-0.6-0.8-0.6-1.4c0-0.8,0.1-1.7,0.4-2.8l2-9.4h-2.6l0.1-0.6l1.2-0.1
		c1-0.1,1.9-0.6,2.5-1.5l2.4-2.9h0.9l-0.8,4.2h3.4l-0.2,1l-3.4-0.1l-2,9.7c-0.1,0.4-0.1,0.7-0.2,1c0,0.3-0.1,0.5-0.1,0.7
		c0,0.2,0.1,0.4,0.2,0.5c0.1,0.1,0.3,0.2,0.4,0.2c0.4,0,1.1-0.4,1.9-1.3l0.5,0.4c-0.5,0.7-1.1,1.4-1.9,2
		C122.7,41.7,121.8,42,120.8,42z"/>
	<path class="st0" d="M133.4,42.1c-1,0-2-0.1-3.1-0.4c-1-0.3-1.9-0.6-2.6-1.1l0.7-4.5h0.8l0.8,2.3c0.3,1,0.7,1.6,1.2,2
		c0.5,0.4,1.3,0.6,2.3,0.6c1.2,0,2.1-0.3,2.8-1c0.7-0.7,1-1.5,1-2.5c0-0.5-0.1-1-0.2-1.4c-0.2-0.5-0.5-0.9-0.9-1.4
		c-0.4-0.5-1.1-1.1-2-1.7c-1.1-0.8-1.9-1.5-2.5-2.2c-0.6-0.7-1-1.4-1.2-2s-0.3-1.3-0.3-2c0-1.2,0.3-2.2,0.9-3.1s1.4-1.6,2.5-2.1
		s2.3-0.7,3.7-0.7c1,0,1.9,0.1,2.9,0.4c1,0.3,1.8,0.6,2.5,1.1l-0.8,4.3h-0.9l-0.5-2c-0.3-1-0.6-1.7-1.2-2.2
		c-0.5-0.4-1.3-0.7-2.2-0.7c-1,0-1.8,0.3-2.5,0.8c-0.7,0.6-1.1,1.4-1.1,2.4c0,0.8,0.2,1.6,0.7,2.3c0.5,0.7,1.3,1.5,2.4,2.3
		c1.6,1.2,2.7,2.2,3.3,3.2c0.6,1,0.9,2,0.9,3c0,1.3-0.3,2.3-1,3.3c-0.6,0.9-1.5,1.6-2.6,2.1C136.2,41.9,134.9,42.1,133.4,42.1z"/>
	<path class="st0" d="M146.7,42c-0.8,0-1.6-0.3-2.2-0.9c-0.7-0.6-1-1.6-1-3.1c0-1.1,0.2-2.2,0.6-3.2c0.4-1.1,1-2.1,1.7-3.1
		c0.7-1,1.5-1.9,2.4-2.6s1.8-1.4,2.7-1.8s1.8-0.7,2.6-0.7c0.4,0,0.8,0.1,1.1,0.2s0.7,0.4,1,0.6l2.3-1l0.3,0.2L155.6,38
		c-0.2,0.6-0.2,1.1-0.2,1.4c0,0.4,0.2,0.6,0.6,0.6c0.3,0,0.6-0.1,0.9-0.3c0.3-0.2,0.7-0.6,1.2-1l0.4,0.4c-0.3,0.5-0.7,0.9-1.1,1.4
		c-0.4,0.4-0.9,0.8-1.5,1.1c-0.6,0.3-1.1,0.4-1.7,0.4c-0.6,0-1.2-0.2-1.6-0.6s-0.6-1-0.6-1.8c0-0.3,0-0.6,0.1-0.9
		c-0.8,0.9-1.7,1.7-2.6,2.4C148.4,41.7,147.5,42,146.7,42z M147,36.6c0,1,0.2,1.8,0.5,2.2c0.3,0.5,0.8,0.7,1.4,0.7
		c0.5,0,1-0.2,1.5-0.5c0.5-0.3,1.1-0.8,1.7-1.4c0-0.1,0.1-0.3,0.1-0.5l1.9-8.6c-0.3-0.3-0.6-0.5-0.9-0.6c-0.3-0.1-0.7-0.2-1-0.2
		c-0.8,0-1.7,0.5-2.7,1.5c-0.7,0.8-1.3,1.8-1.7,3.1C147.2,33.9,147,35.2,147,36.6z"/>
	<path class="st0" d="M162.6,42c-0.6,0-1.1-0.2-1.5-0.5s-0.6-0.8-0.6-1.4c0-0.3,0-0.8,0.1-1.2c0.1-0.5,0.2-1,0.3-1.5l1.4-6.9
		c0.2-0.8-0.1-1.4-0.9-1.7l-0.4-0.2l0.1-0.5l5.5-1.6l0.3,0.3l-2.3,10.8c-0.1,0.3-0.1,0.6-0.2,0.9c0,0.3-0.1,0.5-0.1,0.7
		c0,0.4,0.2,0.7,0.6,0.7c0.5,0,1.1-0.4,1.9-1.2l0.4,0.4c-0.5,0.7-1.1,1.4-1.9,2S163.6,42,162.6,42z M165.4,24.8
		c-0.6,0-1.1-0.2-1.5-0.5s-0.6-0.9-0.6-1.5c0-0.7,0.2-1.2,0.7-1.7c0.5-0.4,1-0.7,1.6-0.7c0.6,0,1.1,0.2,1.5,0.6
		c0.4,0.4,0.6,0.9,0.6,1.4c0,0.6-0.2,1.2-0.7,1.7C166.5,24.5,166,24.8,165.4,24.8z"/>
	<path class="st0" d="M170.9,42c-0.6,0-1.2-0.2-1.6-0.5s-0.6-0.8-0.6-1.4c0-0.3,0-0.8,0.1-1.3c0.1-0.5,0.2-1.1,0.3-1.9l1.8-8.7
		c0.2-0.7,0.3-1.4,0.4-2c0.1-0.6,0.2-1.3,0.4-2c0.1-0.8-0.2-1.4-1-1.6l-0.5-0.2l0.1-0.5l5.6-1.6l0.3,0.2l-3.7,17.4
		c-0.1,0.3-0.1,0.6-0.2,0.9c0,0.2,0,0.4,0,0.6c0,0.4,0.2,0.7,0.6,0.7c0.5,0,1.1-0.4,2-1.3l0.4,0.4c-0.5,0.7-1.1,1.4-1.9,2
		S171.9,42,170.9,42z"/>
	<path class="st0" d="M58.6,65.2l0.1-0.5l0.6-0.2c0.7-0.2,1.1-0.7,1.3-1.5l1.2-6.2c0.2-1,0.4-2.1,0.6-3.3c0.2-1.2,0.4-2.3,0.6-3.3
		h-1c-1,0-1.8,0.4-2.4,1.3l-1.7,2.4h-0.6l0.9-4.3h13l-0.8,4.3h-0.6L69,51.7c-0.3-1-1-1.5-2-1.5h-1l-1.4,7.6
		c-0.2,0.8-0.3,1.7-0.5,2.6c-0.2,0.9-0.3,1.8-0.5,2.6c-0.1,0.8,0.2,1.3,0.9,1.6l0.4,0.1l-0.1,0.5H58.6z"/>
	<path class="st0" d="M69.9,65.4l-0.2-0.2l1.8-8.6c0.1-0.4,0.1-0.7-0.1-0.9c-0.1-0.2-0.3-0.4-0.7-0.5l-0.3-0.1l0.1-0.4l3.9-1.3
		l0.3,0.3L74,57.5c0.3-0.7,0.7-1.4,1.2-2c0.4-0.6,0.9-1.1,1.4-1.4c0.5-0.4,1-0.5,1.4-0.5c0.5,0,0.9,0.1,1.2,0.4
		c0.3,0.3,0.4,0.6,0.4,1c0,0.4-0.1,0.8-0.4,1.1c-0.3,0.3-0.6,0.4-1,0.4c-0.7,0-1.3-0.3-1.9-1c-0.6,0.5-1.1,1-1.5,1.7
		c-0.4,0.7-0.8,1.4-1.2,2.2l-0.2,1c-0.2,0.8-0.3,1.7-0.5,2.5c-0.2,0.8-0.3,1.7-0.5,2.5L69.9,65.4z"/>
	<path class="st0" d="M81.6,65.6c-0.5,0-0.9-0.1-1.2-0.4S80,64.6,80,64.1c0-0.3,0-0.6,0.1-1c0.1-0.4,0.1-0.8,0.2-1.2l1.1-5.4
		c0.1-0.7-0.1-1.1-0.7-1.4l-0.3-0.1l0-0.4l4.3-1.2l0.2,0.2l-1.8,8.5c-0.1,0.3-0.1,0.5-0.1,0.7c0,0.2,0,0.4,0,0.6
		c0,0.3,0.2,0.5,0.5,0.5c0.4,0,0.9-0.3,1.5-0.9l0.3,0.3c-0.4,0.6-0.9,1.1-1.5,1.5S82.4,65.6,81.6,65.6z M83.8,52.1
		c-0.4,0-0.8-0.1-1.1-0.4c-0.3-0.3-0.5-0.7-0.5-1.2c0-0.5,0.2-1,0.6-1.3c0.4-0.3,0.8-0.5,1.3-0.5c0.5,0,0.8,0.1,1.1,0.4
		c0.3,0.3,0.5,0.7,0.5,1.1c0,0.5-0.2,0.9-0.6,1.3C84.7,51.9,84.3,52.1,83.8,52.1z"/>
	<path class="st0" d="M90.2,65.6c-0.4,0-0.8-0.1-1.2-0.3c-0.2,0.8-0.3,1.5-0.4,2.1c-0.1,0.6-0.2,1.2-0.3,1.7c-0.1,0.5,0.1,0.9,0.6,1
		l0.6,0.1l-0.1,0.4h-5.6l0.1-0.4l0.4-0.1c0.6-0.2,0.9-0.5,1-1.1L88,56.6c0.1-0.6-0.1-1.1-0.7-1.3l-0.4-0.1l0-0.4l4.2-1.2l0.3,0.2
		L91,56.2c0.6-0.8,1.4-1.4,2.2-1.9c0.8-0.5,1.6-0.7,2.2-0.7c0.6,0,1.2,0.2,1.7,0.7c0.5,0.5,0.7,1.3,0.7,2.5c0,0.9-0.1,1.7-0.4,2.6
		c-0.3,0.9-0.7,1.7-1.2,2.4c-0.5,0.8-1.1,1.4-1.7,2c-0.6,0.6-1.3,1-2,1.4C91.6,65.4,90.9,65.6,90.2,65.6z M93.4,55.3
		c-0.4,0-0.8,0.1-1.2,0.4c-0.5,0.3-0.9,0.7-1.4,1.2l-1.3,6.6c0.6,0.5,1.2,0.8,1.8,0.8c1,0,1.8-0.5,2.4-1.5c0.2-0.4,0.5-0.9,0.7-1.4
		c0.2-0.6,0.4-1.2,0.5-1.8c0.1-0.6,0.2-1.3,0.2-1.9c0-0.8-0.1-1.4-0.4-1.8C94.3,55.5,93.9,55.3,93.4,55.3z"/>
	<path class="st0" d="M101.4,65.6c-1,0-1.8-0.2-2.4-0.6c-0.6-0.4-0.9-0.9-0.9-1.6c0-0.4,0.1-0.7,0.4-1c0.3-0.3,0.6-0.4,1-0.4
		c0.8,0,1.3,0.5,1.4,1.4l0.1,0.5c0.1,0.3,0.2,0.6,0.3,0.8c0.1,0.2,0.4,0.3,0.7,0.3c0.4,0,0.8-0.2,1.1-0.5c0.3-0.3,0.5-0.8,0.5-1.4
		c0-0.4-0.1-0.8-0.4-1.2c-0.3-0.4-0.7-0.8-1.4-1.3c-0.6-0.5-1.1-1-1.5-1.6c-0.4-0.5-0.6-1.2-0.6-1.9c0-0.6,0.2-1.2,0.5-1.8
		c0.3-0.5,0.8-1,1.5-1.3c0.6-0.3,1.4-0.5,2.3-0.5c1,0,1.8,0.2,2.4,0.6c0.6,0.4,0.9,0.9,0.9,1.5c0,0.3-0.1,0.6-0.3,0.9
		c-0.2,0.2-0.5,0.3-0.9,0.3c-0.7,0-1.2-0.4-1.5-1.3l-0.2-0.6c-0.1-0.3-0.2-0.5-0.3-0.6c-0.1-0.1-0.3-0.2-0.5-0.2
		c-0.3,0-0.6,0.1-0.9,0.4c-0.3,0.3-0.4,0.7-0.4,1.3c0,0.6,0.2,1.1,0.5,1.5c0.3,0.5,0.8,0.9,1.5,1.4c0.7,0.5,1.2,1,1.5,1.5
		c0.3,0.5,0.5,1.1,0.5,1.8c0,1-0.4,1.8-1.3,2.5C104.1,65.2,102.9,65.6,101.4,65.6z"/>
</g>
</svg>
